<svg width="60" height="60" viewBox="0 0 60 60" fill="none" xmlns="http://www.w3.org/2000/svg">
    <path
        d="M6.40186 11.477H4.54799C3.90131 11.477 3.37688 10.9525 3.37688 10.3059C3.37688 9.65917 3.90131 9.13475 4.54799 9.13475H8.9982C9.64488 9.13475 10.1693 9.65917 10.1693 10.3059V14.7561C10.1693 15.4027 9.64488 15.9272 8.9982 15.9272C8.35151 15.9272 7.82709 15.4027 7.82709 14.7561V13.4675C4.27372 18.2246 2.34221 23.9967 2.34221 30C2.34221 45.2506 14.7494 57.6578 30 57.6578C45.2506 57.6578 57.6578 45.2506 57.6578 30C57.6578 14.7494 45.2506 2.34221 30 2.34221C28.8721 2.34221 27.737 2.41072 26.6258 2.54575C25.9846 2.62328 25.3999 2.16666 25.3219 1.52455C25.2438 0.882546 25.701 0.298632 26.3431 0.220636C27.5477 0.0742481 28.778 0 30 0C38.0133 0 45.547 3.12053 51.2132 8.78681C56.8795 14.453 60 21.9867 60 30C60 38.0133 56.8795 45.547 51.2132 51.2132C45.547 56.8795 38.0133 60 30 60C21.9867 60 14.453 56.8795 8.78681 51.2132C3.12053 45.547 0 38.0133 0 30C0 23.2379 2.25906 16.7462 6.40186 11.477Z"
        fill="#E50027" />
    <path
        d="M12.7034 17.6853C12.1569 17.3394 11.4335 17.5021 11.0874 18.0483C8.4139 22.2709 7.23038 27.349 7.75492 32.3474C8.28718 37.42 10.5703 42.2035 14.1836 45.8169C18.5442 50.1775 24.2722 52.3579 30.0003 52.3579C35.7284 52.3579 41.4563 50.1777 45.817 45.8169C54.5384 37.0956 54.5384 22.9048 45.817 14.1836C42.2092 10.5759 37.4336 8.29362 32.3695 7.75725C27.3803 7.2285 22.3077 8.40276 18.0869 11.0632C17.5396 11.4081 17.3758 12.1312 17.7206 12.6784C18.0655 13.2256 18.7886 13.3895 19.3358 13.0447C27.292 8.03 37.5002 9.17921 44.1608 15.8398C51.9689 23.6479 51.9689 36.3525 44.1608 44.1606C36.3528 51.9689 23.6479 51.9689 15.8399 44.1606C9.27138 37.5921 8.10496 27.1373 13.0665 19.3014C13.4123 18.7549 13.2499 18.0314 12.7034 17.6853Z"
        fill="#E50027" />
    <path
        d="M45.2243 31.1904H46.6685C47.3152 31.1904 47.8396 30.6659 47.8396 30.0192C47.8396 29.3726 47.3152 28.8481 46.6685 28.8481H45.2243C44.5776 28.8481 44.0532 29.3726 44.0532 30.0192C44.0532 30.6659 44.5775 31.1904 45.2243 31.1904Z"
        fill="#E50027" />
    <path
        d="M12.1599 29.9812C12.1599 30.6279 12.6843 31.1523 13.331 31.1523H14.7752C15.4219 31.1523 15.9463 30.6279 15.9463 29.9812C15.9463 29.3345 15.4219 28.8101 14.7752 28.8101H13.331C12.6843 28.8101 12.1599 29.3344 12.1599 29.9812Z"
        fill="#E50027" />
    <path
        d="M31.1901 14.7755V13.3313C31.1901 12.6846 30.6657 12.1602 30.019 12.1602C29.3723 12.1602 28.8479 12.6846 28.8479 13.3313V14.7755C28.8479 15.4222 29.3723 15.9466 30.019 15.9466C30.6657 15.9466 31.1901 15.4222 31.1901 14.7755Z"
        fill="#E50027" />
    <path
        d="M28.8098 45.2243V46.6685C28.8098 47.3152 29.3342 47.8396 29.9809 47.8396C30.6276 47.8396 31.152 47.3152 31.152 46.6685V45.2243C31.152 44.5776 30.6276 44.0532 29.9809 44.0532C29.3342 44.0532 28.8098 44.5775 28.8098 45.2243Z"
        fill="#E50027" />
    <path
        d="M24.1301 22.4736C23.6727 22.0164 22.9314 22.0164 22.4738 22.4736C22.0165 22.9309 22.0165 23.6725 22.4738 24.1299L26.4428 28.0989C26.1387 28.6657 25.9657 29.313 25.9657 29.9999C25.9657 32.2246 27.7756 34.0344 30.0002 34.0344C32.2248 34.0344 34.0347 32.2246 34.0347 29.9999C34.0347 29.313 33.8616 28.6657 33.5576 28.0989L41.5659 20.0905C42.0232 19.6332 42.0232 18.8916 41.5659 18.4342C41.1085 17.977 40.3672 17.977 39.9096 18.4342L31.9013 26.4426C31.3344 26.1384 30.6872 25.9655 30.0002 25.9655C29.3132 25.9655 28.666 26.1386 28.0991 26.4426L24.1301 22.4736ZM31.6924 29.9999C31.6924 30.9331 30.9333 31.6922 30.0002 31.6922C29.0671 31.6922 28.3079 30.9331 28.3079 29.9999C28.3079 29.0668 29.0671 28.3077 30.0002 28.3077C30.9333 28.3077 31.6924 29.0668 31.6924 29.9999Z"
        fill="black" />
    <path
        d="M15.8389 15.8389C16.0579 15.6211 16.1831 15.3189 16.1831 15.0109C16.1831 14.7029 16.0579 14.402 15.8389 14.183C15.6211 13.9653 15.32 13.8398 15.0109 13.8398C14.7029 13.8398 14.4008 13.9652 14.183 14.183C13.9653 14.4008 13.8398 14.7029 13.8398 15.0109C13.8398 15.3201 13.9652 15.6211 14.183 15.8389C14.4008 16.0566 14.7029 16.182 15.0109 16.182C15.32 16.182 15.6211 16.0566 15.8389 15.8389Z"
        fill="#E50027" />
    <path
        d="M21.8875 3.49895C21.5782 3.49895 21.2761 3.3747 21.0583 3.15582C20.8405 2.93799 20.7151 2.6369 20.7151 2.32784C20.7151 2.01984 20.8404 1.7177 21.0583 1.49987C21.2761 1.28216 21.5782 1.15674 21.8875 1.15674C22.1955 1.15674 22.4976 1.28205 22.7153 1.49987C22.9332 1.7177 23.0586 2.01984 23.0586 2.32784C23.0586 2.63702 22.9333 2.93799 22.7153 3.15582C22.4976 3.3747 22.1955 3.49895 21.8875 3.49895Z"
        fill="#E50027" />
</svg>