<svg width="60" height="60" viewBox="0 0 60 60" fill="none" xmlns="http://www.w3.org/2000/svg">
<g clip-path="url(#clip0)">
<path d="M40.965 24.729C40.9546 24.6983 40.9422 24.6683 40.928 24.639C40.9113 24.5885 40.891 24.5394 40.867 24.492C40.8457 24.46 40.8227 24.4294 40.798 24.4C40.7718 24.3603 40.7427 24.3224 40.711 24.287C40.6813 24.2608 40.6502 24.236 40.618 24.213C40.5862 24.1842 40.5528 24.1572 40.518 24.132L30.518 18.132C30.2011 17.9417 29.8049 17.9417 29.488 18.132L19.488 24.132C19.451 24.1564 19.4159 24.1834 19.383 24.213C19.3504 24.236 19.319 24.2608 19.289 24.287C19.2579 24.3224 19.2291 24.3598 19.203 24.399C19.1776 24.4285 19.1543 24.4595 19.133 24.492C19.1095 24.5382 19.0895 24.5859 19.073 24.635C19.0588 24.666 19.046 24.6978 19.035 24.73C19.0116 24.8144 18.9999 24.9015 19 24.989V34.989C19.0001 35.34 19.1841 35.6653 19.485 35.846L29.485 41.846L29.496 41.851L29.507 41.859C29.5595 41.8862 29.6144 41.9087 29.671 41.926C29.694 41.934 29.716 41.947 29.74 41.954C29.9102 42.0006 30.0899 42.0006 30.26 41.954C30.284 41.947 30.306 41.934 30.329 41.926C30.3856 41.9087 30.4405 41.8862 30.493 41.859L30.504 41.851L30.515 41.846L40.515 35.846C40.8158 35.6653 40.9998 35.34 41 34.989V24.989C41.0001 24.9013 40.9882 24.8138 40.965 24.729ZM30 20.155L33.056 21.989L25 26.823L21.944 24.989L30 20.155ZM29 39.222L21 34.422V26.755L29 31.555V39.222ZM30 29.823L26.944 27.989L35 23.155L38.056 24.989L30 29.823ZM39 34.423L31 39.223V31.555L39 26.755V34.423Z" fill="black"/>
<path d="M30.8002 0.389006C30.4367 -0.0528683 29.7838 -0.116243 29.3419 0.247256C29.2902 0.289756 29.2427 0.337256 29.2002 0.389006L26.2002 4.389L27.8002 5.58899L29.0002 3.989V11.989H31.0002V3.989L32.2002 5.58899L33.8002 4.389L30.8002 0.389006Z" fill="black"/>
<path d="M32.2002 54.3888L31.0002 55.9888V47.9888H29.0002V55.9888L27.8002 54.3888L26.2002 55.5888L29.2002 59.5887C29.5316 60.0306 30.1583 60.1201 30.6002 59.7887C30.6759 59.7319 30.7433 59.6645 30.8002 59.5887L33.8002 55.5888L32.2002 54.3888Z" fill="black"/>
<path d="M31 13.9888H29V15.9888H31V13.9888Z" fill="black"/>
<path d="M31 43.9888H29V45.9888H31V43.9888Z" fill="black"/>
<path d="M11.9996 28.9885H3.99958L5.59957 27.7885L4.39958 26.1885L0.399585 29.1885C-0.0422887 29.5198 -0.131788 30.1466 0.199586 30.5885C0.256461 30.6642 0.323836 30.7316 0.399585 30.7885L4.39958 33.7884L5.59957 32.1884L3.99958 30.9885H11.9996V28.9885Z" fill="black"/>
<path d="M59.8 29.3885C59.7431 29.3127 59.6757 29.2453 59.6 29.1885L55.6 26.1885L54.4 27.7885L56 28.9885H48V30.9885H56L54.4 32.1884L55.6 33.7884L59.6 30.7885C60.0419 30.4571 60.1314 29.8303 59.8 29.3885Z" fill="black"/>
<path d="M16 28.9888H14V30.9888H16V28.9888Z" fill="black"/>
<path d="M46 28.9888H44V30.9888H46V28.9888Z" fill="black"/>
<path d="M17.9791 16.554L12.3231 10.898L14.3021 11.18L14.5851 9.20001L9.63613 8.48901C9.08988 8.40788 8.58126 8.78501 8.50013 9.33138C8.48563 9.42875 8.48563 9.52775 8.50013 9.625L9.20713 14.574L11.1871 14.291L10.9051 12.312L16.5611 17.968L17.9791 16.554Z" fill="black"/>
<path d="M51.498 50.3527L50.791 45.4037L48.809 45.6887L49.091 47.6677L43.435 42.0117L42.021 43.4257L47.677 49.0817L45.7 48.7977L45.417 50.7777L50.366 51.4847C50.413 51.4914 50.4605 51.4948 50.508 51.4947C51.0602 51.4948 51.508 51.0471 51.5081 50.4948C51.5082 50.4473 51.5047 50.3998 51.498 50.3527Z" fill="black"/>
<path d="M19.3937 17.9686L17.9795 19.3828L19.3937 20.797L20.8079 19.3828L19.3937 17.9686Z" fill="black"/>
<path d="M40.6066 39.1805L39.1924 40.5947L40.6066 42.0089L42.0208 40.5947L40.6066 39.1805Z" fill="black"/>
<path d="M12.319 49.0798L17.975 43.4238L16.565 42.0098L10.909 47.6658L11.191 45.6868L9.211 45.4038L8.5 50.3528C8.42162 50.8994 8.80112 51.4061 9.34787 51.4846C9.395 51.4914 9.4425 51.4948 9.49 51.4948C9.5375 51.4949 9.585 51.4915 9.632 51.4847L14.581 50.7777L14.298 48.7978L12.319 49.0798Z" fill="black"/>
<path d="M51.213 8.77565C50.9912 8.55152 50.6758 8.4464 50.364 8.49265L45.415 9.19965L45.698 11.1796L47.677 10.8976L42.021 16.5536L43.435 17.9676L49.091 12.3116L48.809 14.2886L50.789 14.5736L51.496 9.62465C51.5407 9.3129 51.4359 8.9984 51.213 8.77565Z" fill="black"/>
<path d="M19.3942 39.1815L17.98 40.5957L19.3942 42.0099L20.8084 40.5957L19.3942 39.1815Z" fill="black"/>
<path d="M40.6071 17.9652L39.1929 19.3794L40.6071 20.7936L42.0213 19.3794L40.6071 17.9652Z" fill="black"/>
</g>
<defs>
<clipPath id="clip0">
<rect width="60" height="60" fill="white"/>
</clipPath>
</defs>
</svg>
