<svg width="60" height="60" viewBox="0 0 60 60" fill="none" xmlns="http://www.w3.org/2000/svg">
<path d="M55.1826 50.4399V35.4399H40.1826" stroke="black" stroke-width="2" stroke-linecap="round" stroke-linejoin="round"/>
<path d="M55.182 35.4399L43.582 46.3399C40.8952 49.0282 37.5711 50.9919 33.92 52.048C30.2689 53.1041 26.4098 53.2181 22.7027 52.3793C18.9957 51.5405 15.5615 49.7764 12.7207 47.2514C9.87986 44.7264 7.72495 41.523 6.45703 37.9399" stroke="black" stroke-width="2" stroke-linecap="round" stroke-linejoin="round"/>
<path d="M6 8.49414V23.4941H21" stroke="black" stroke-width="2" stroke-linecap="round" stroke-linejoin="round"/>
<path d="M6.00059 23.4941L17.6006 12.5941C20.2875 9.90593 23.6115 7.94216 27.2626 6.88607C30.9137 5.82999 34.7728 5.71602 38.4799 6.55479C42.1869 7.39355 45.6211 9.15773 48.4619 11.6827C51.3028 14.2077 53.4577 17.4111 54.7256 20.9941" stroke="black" stroke-width="2" stroke-linecap="round" stroke-linejoin="round"/>
</svg>
