<svg width="152" height="60" viewBox="0 0 152 60" fill="none" xmlns="http://www.w3.org/2000/svg">
<path d="M25.2457 58.9437C24.5454 59.6479 23.7401 60 22.8297 60C22.2694 60 21.7442 59.8944 21.219 59.6479C20.7288 59.4014 20.2736 59.1197 19.9234 58.6972C19.5383 58.3099 19.2581 57.8169 19.048 57.2887C18.838 56.7606 18.7329 56.162 18.7329 55.5282C18.7329 54.9296 18.838 54.3662 19.048 53.838C19.2581 53.3099 19.5733 52.8521 19.9234 52.4648C20.3086 52.0775 20.7288 51.7606 21.254 51.5141C21.7792 51.2676 22.3044 51.162 22.9347 51.162C23.7401 51.162 24.4404 51.338 25.0356 51.6901C25.6309 52.0423 26.051 52.5 26.3312 53.0634L25.0706 53.9789C24.8605 53.5563 24.5454 53.2042 24.1602 52.993C23.7751 52.7817 23.3549 52.6408 22.8647 52.6408C22.5145 52.6408 22.1644 52.7113 21.8492 52.8873C21.5341 53.0282 21.289 53.2394 21.0789 53.5211C20.8688 53.8028 20.6938 54.0845 20.5887 54.4366C20.4837 54.7887 20.4136 55.1408 20.4136 55.5634C20.4136 55.9859 20.4837 56.338 20.6237 56.6901C20.7638 57.0422 20.9389 57.3592 21.1489 57.6056C21.394 57.8521 21.6392 58.0634 21.9543 58.2042C22.2694 58.3451 22.6196 58.4155 22.9697 58.4155C23.8101 58.4155 24.5454 58.0282 25.2457 57.2183V56.6197H23.495V55.3873H26.6113V59.9296H25.2107V58.9437H25.2457Z" fill="#E50027"/>
<path d="M32.7742 59.9296V51.2676H36.5908C36.976 51.2676 37.3611 51.338 37.6763 51.5141C38.0264 51.6901 38.3065 51.9014 38.5516 52.1831C38.7967 52.4648 38.9718 52.7817 39.1119 53.0986C39.2519 53.4507 39.322 53.8028 39.322 54.1549C39.322 54.7183 39.1819 55.2113 38.9018 55.7042C38.6217 56.162 38.2365 56.5141 37.7813 56.6901L39.7421 59.9648H37.8513L36.1006 57.0422H34.4549V59.9648H32.7742V59.9296ZM34.4549 55.5282H36.5558C36.6958 55.5282 36.8709 55.493 36.976 55.4225C37.116 55.3521 37.2211 55.2465 37.3261 55.1056C37.4312 54.9648 37.5012 54.8239 37.5712 54.6479C37.6413 54.4718 37.6413 54.2958 37.6413 54.0845C37.6413 53.8732 37.6062 53.6972 37.5362 53.5211C37.4662 53.3451 37.3961 53.2042 37.2911 53.0634C37.1861 52.9225 37.046 52.8521 36.9059 52.7817C36.7659 52.7113 36.6258 52.6761 36.4858 52.6761H34.4549V55.5282Z" fill="#E50027"/>
<path d="M49.2661 60C48.6358 60 48.0756 59.8592 47.5504 59.6127C47.0252 59.3662 46.605 59.0493 46.2198 58.6268C45.8346 58.2042 45.5545 57.7465 45.3444 57.2183C45.1343 56.6901 45.0293 56.162 45.0293 55.5986C45.0293 55.0352 45.1343 54.4718 45.3444 53.9437C45.5545 53.4155 45.8697 52.9577 46.2198 52.5352C46.605 52.1127 47.0602 51.7958 47.5504 51.5493C48.0756 51.3028 48.6358 51.1972 49.2311 51.1972C49.8614 51.1972 50.4216 51.338 50.9468 51.5845C51.4721 51.831 51.8922 52.1831 52.2774 52.6056C52.6275 53.0282 52.9077 53.4859 53.1178 54.0141C53.3278 54.5423 53.4329 55.0704 53.4329 55.6338C53.4329 56.1972 53.3278 56.7606 53.1178 57.2887C52.9077 57.8169 52.6275 58.2746 52.2424 58.6972C51.8572 59.0845 51.437 59.4366 50.9118 59.6479C50.3866 59.8592 49.8964 60 49.2661 60ZM46.78 55.5986C46.78 55.9859 46.8501 56.338 46.9551 56.6901C47.0602 57.0423 47.2352 57.3592 47.4453 57.6056C47.6554 57.8873 47.9355 58.0986 48.2507 58.2394C48.5658 58.4155 48.916 58.4859 49.3011 58.4859C49.7213 58.4859 50.0715 58.4155 50.3866 58.2394C50.7017 58.0634 50.9468 57.8521 51.1919 57.5704C51.402 57.2887 51.5771 56.9718 51.6821 56.6197C51.7872 56.2676 51.8572 55.9155 51.8572 55.5634C51.8572 55.1761 51.7872 54.8239 51.6821 54.4718C51.5771 54.1197 51.402 53.8028 51.1919 53.5563C50.9818 53.3099 50.7017 53.0634 50.3866 52.9225C50.0715 52.7465 49.7213 52.6761 49.3361 52.6761C48.916 52.6761 48.5658 52.7465 48.2507 52.9225C47.9355 53.0986 47.6554 53.3099 47.4453 53.5916C47.2352 53.8732 47.0602 54.1901 46.9551 54.507C46.8151 54.8592 46.78 55.2113 46.78 55.5986Z" fill="#E50027"/>
<path d="M63.132 58.4859C63.5171 58.4859 63.8673 58.4155 64.1474 58.2394C64.4275 58.0634 64.6376 57.8521 64.8127 57.6056C64.9878 57.3592 65.0928 57.0423 65.1628 56.6901C65.2329 56.338 65.2679 56.0211 65.2679 55.6338V51.1972H66.9486V55.6338C66.9486 56.2324 66.8786 56.7958 66.7385 57.3239C66.5984 57.8521 66.3884 58.3099 66.0732 58.6972C65.7581 59.0845 65.3729 59.4014 64.8827 59.6127C64.3925 59.8239 63.8323 59.9648 63.167 59.9648C62.4667 59.9648 61.9064 59.8592 61.4162 59.6127C60.926 59.3662 60.5409 59.0493 60.2257 58.662C59.9106 58.2746 59.7005 57.8169 59.5604 57.2887C59.4204 56.7606 59.3503 56.2324 59.3503 55.669V51.2324H61.0311V55.669C61.0311 56.0211 61.0661 56.3732 61.1361 56.7254C61.2061 57.0775 61.3112 57.3592 61.4863 57.6408C61.6613 57.8873 61.8714 58.0986 62.1515 58.2746C62.4317 58.4155 62.7468 58.4859 63.132 58.4859Z" fill="#E50027"/>
<path d="M73.3213 59.9296V51.2676H76.9628C77.348 51.2676 77.7332 51.338 78.0483 51.5141C78.3985 51.6901 78.6786 51.9014 78.9237 52.1831C79.1688 52.4648 79.3439 52.7817 79.4839 53.0986C79.624 53.4507 79.694 53.8028 79.694 54.1549C79.694 54.507 79.624 54.8944 79.4839 55.2113C79.3439 55.5634 79.1688 55.8803 78.9237 56.1268C78.6786 56.4085 78.3985 56.6197 78.0833 56.7606C77.7332 56.9366 77.383 57.007 76.9979 57.007H74.967V59.9296H73.3213ZM75.002 55.5282H76.9628C77.278 55.5282 77.5231 55.3873 77.7332 55.1408C77.9433 54.8944 78.0483 54.5423 78.0483 54.1197C78.0483 53.9084 78.0133 53.6972 77.9433 53.5211C77.8732 53.3451 77.8032 53.2042 77.6982 53.0634C77.5931 52.9225 77.4531 52.8521 77.313 52.7817C77.1729 52.7113 77.0329 52.6761 76.8928 52.6761H75.037V55.5282H75.002Z" fill="#E50027"/>
<path d="M92.9297 59.9296V51.2676H94.6104V58.4507H99.0223V59.9296H92.9297Z" fill="#E50027"/>
<path d="M104.73 59.9296V51.2676H106.411V58.4507H110.823V59.9296H104.73Z" fill="#E50027"/>
<path d="M115.479 55.5282C115.479 55 115.584 54.4718 115.759 53.9437C115.934 53.4155 116.215 52.9578 116.6 52.5704C116.95 52.1479 117.405 51.831 117.93 51.5845C118.456 51.338 119.051 51.1972 119.716 51.1972C120.521 51.1972 121.187 51.3732 121.782 51.7254C122.377 52.0775 122.797 52.5352 123.078 53.0986L121.782 53.9789C121.677 53.7324 121.537 53.5211 121.362 53.3451C121.187 53.169 121.012 53.0282 120.837 52.9578C120.661 52.8521 120.451 52.7817 120.241 52.7465C120.031 52.7113 119.856 52.6761 119.646 52.6761C119.226 52.6761 118.841 52.7465 118.561 52.9225C118.245 53.0986 118 53.3099 117.79 53.5916C117.58 53.8732 117.44 54.1901 117.335 54.507C117.23 54.8592 117.16 55.2113 117.16 55.5282C117.16 55.9155 117.23 56.2676 117.335 56.6197C117.475 56.9718 117.615 57.2887 117.86 57.5704C118.07 57.8521 118.35 58.0634 118.666 58.2042C118.981 58.3803 119.331 58.4507 119.681 58.4507C119.891 58.4507 120.066 58.4155 120.276 58.3803C120.486 58.3451 120.696 58.2394 120.872 58.1338C121.047 58.0282 121.222 57.8873 121.397 57.7113C121.572 57.5352 121.677 57.3239 121.782 57.1127L123.148 57.9225C123.007 58.2394 122.797 58.5211 122.552 58.7676C122.307 59.0141 122.027 59.2254 121.677 59.4014C121.362 59.5775 121.012 59.7183 120.661 59.7887C120.311 59.8592 119.926 59.9296 119.576 59.9296C118.946 59.9296 118.386 59.7887 117.895 59.5423C117.37 59.2958 116.95 58.9437 116.565 58.5211C116.18 58.0986 115.899 57.6408 115.689 57.0775C115.584 56.6197 115.479 56.0916 115.479 55.5282Z" fill="#E50027"/>
<path d="M123.218 49.4014C119.366 49.4014 115.55 49.4014 111.383 49.4014C114.044 44.6831 119.296 45.0704 123.043 42.5352C121.117 42.0775 119.331 43.2746 117.125 42.5352C120.487 38.6268 123.708 34.9296 127.105 30.9859C123.358 26.3732 119.646 21.7958 115.795 17.0775C117.966 16.338 119.681 17.3591 121.607 16.9366C115.094 15.1408 109.702 11.831 106.656 5.52817C107.216 5.10563 107.811 5.42254 108.371 5.56338C117.58 8.02817 126.299 11.6549 134.388 16.6901C135.858 17.6056 135.823 17.6408 135.858 19.7183C133.197 19.8592 130.641 19.0493 127.84 19.1197C130.046 21.5493 131.341 24.7535 134.633 26.162C139.605 28.2746 144.542 30.4577 149.339 32.5352C149.759 33.5563 149.969 34.3662 149.829 35.2465C148.884 36.2324 147.693 35.1056 146.713 35.669C146.468 38.662 149.094 39.4014 150.81 40.9859C151.3 43.6268 151.86 46.3028 152 49.0493C150.389 50 148.639 49.0493 147.133 49.7535C144.857 57.993 141.426 60.9507 135.263 59.5775C140.48 56.831 142.966 52.8873 141.075 47.1831C139.92 43.662 136.489 41.4084 132.742 41.3732C128.295 41.338 125.704 43.4859 123.218 49.4014Z" fill="#E50027"/>
<path d="M136.909 50.4225C136.979 52.7817 135.088 54.7535 132.672 54.7887C130.221 54.8239 128.33 53.0282 128.295 50.5986C128.26 48.2042 130.151 46.1972 132.497 46.162C134.808 46.1268 136.874 48.0986 136.909 50.4225Z" fill="black"/>
<path d="M22.0594 47.993C19.9235 47.993 18.5229 46.2676 18.5229 44.6479C18.5229 33.5915 24.2304 20.493 24.2304 8.4507C24.2304 5.3169 22.9698 4.11972 21.114 4.11972C15.0564 4.11972 5.04216 14.3662 5.04216 20.669C5.04216 21.162 5.18222 21.6197 5.18222 21.9718C5.18222 22.3944 5.04216 22.6408 4.23681 22.6408C3.32642 22.6408 0 21.0211 0 17.8521C0 9.33098 12.1152 1.54929 20.0986 1.54929C25.1408 1.54929 29.4476 4.22535 29.4476 10.6338C29.4476 21.5493 24.4405 33.5211 23.8452 43.838C29.0975 40.1761 37.0108 20.5282 40.6524 11.0915C41.2126 9.22535 41.8079 7.5 42.4732 6.02112C42.9284 4.96479 43.0684 4.15493 44.1539 4.15493C45.3094 4.15493 47.6204 5.66901 47.6204 7.39437C47.6204 7.64084 47.5854 7.88732 47.4803 8.16901C43.4886 17.3944 41.0026 36.5141 40.7224 43.8028C45.6595 38.169 56.7943 20.9155 56.7943 3.80281C56.7943 2.21831 55.7789 2.1831 55.7789 1.12676C55.7789 0.457745 56.129 0 57.2845 0C59.5605 0 62.0816 4.61268 62.0816 7.21831C62.0816 24.331 42.9284 45.9507 40.1622 47.5352C40.1272 47.5352 39.8471 47.6761 39.707 47.6761C37.5711 47.6761 35.4702 45.3521 35.4702 43.6972C35.4702 40.3521 36.2405 32.7817 37.6061 24.9296C33.2292 34.8239 27.5918 45.9507 23.2149 47.7113C22.9348 47.8169 22.5847 47.993 22.0594 47.993Z" fill="black"/>
<path d="M68.5595 31.1972C69.0498 31.1972 69.61 31.5845 69.61 32.2183C69.61 32.4648 69.575 32.6761 69.3999 32.9225C66.6687 39.4718 63.2023 43.4859 60.366 43.4859C58.2301 43.4859 55.604 41.6549 55.604 40.0352C55.604 36.6197 57.5298 29.9296 59.0705 25.2113C59.4206 24.1549 59.6657 23.3451 60.7512 23.3451C61.9067 23.3451 64.0776 24.6831 64.0776 26.4437C64.0776 26.6901 64.0426 26.9014 63.9726 27.1479C62.9221 30.2817 61.1364 36.3028 61.1364 38.5563C61.1364 39.0493 61.3815 39.1197 61.5565 39.1197C63.4123 39.1197 66.2135 34.4366 67.299 31.9718C67.6142 31.4437 68.1044 31.1972 68.5595 31.1972ZM62.537 13.0986C63.6925 13.0986 66.4937 14.507 66.4937 16.3028C66.4937 17.7113 66.1435 18.9789 65.7233 20.2113C65.4082 21.1268 64.7779 21.9014 64.0076 21.9014C62.3969 21.9014 60.261 20.7394 60.261 18.838C60.296 16.5493 60.331 13.0986 62.537 13.0986Z" fill="black"/>
<path d="M74.6868 30.8803C74.6868 33.0986 75.8423 34.4718 76.3676 36.831C78.1183 35.1056 79.2038 33.838 80.1142 31.9718C80.3593 31.4085 80.8145 31.1972 81.3397 31.1972C81.8299 31.1972 82.3551 31.5845 82.3551 32.2183C82.3551 32.4296 82.3201 32.6761 82.2151 32.9225C80.8495 36.1268 79.1688 38.3099 76.8228 40.2817C76.7877 44.1549 73.5314 46.6197 70.31 46.6197C68.139 46.6197 64.3574 44.4014 64.3574 41.338C64.3574 40.7394 64.9177 40.2817 65.4079 40.2817C66.3183 40.2817 66.6684 40.6338 68.2791 40.6338C69.4346 40.6338 70.5551 40.3169 71.6756 39.7183C71.4655 36.5141 70.275 35.3169 69.8548 32.5C69.7147 32.8169 69.5396 33.169 69.3996 33.4507C69.0845 34.1197 68.6293 34.4718 68.1741 34.4718C67.6138 34.4718 67.1236 34.0493 67.1236 33.3099C67.1236 33.0634 67.2287 32.7113 67.3337 32.3944C68.2441 30.2465 70.0999 26.4437 71.4305 24.4718C71.9907 23.6972 73.1112 23.2042 74.4067 23.2042C75.002 23.2042 75.6673 23.3099 76.3326 23.5563C77.348 23.9437 77.9082 24.8239 77.9082 25.6338C77.9082 27.2183 76.9628 26.6901 76.4026 27.2183C75.4222 27.8873 74.6868 29.3662 74.6868 30.8803ZM69.5747 43.5211C70.0649 43.5211 70.5901 43.4155 70.9753 43.0634C70.38 43.169 69.7147 43.2042 69.1195 43.2042C68.6293 43.2042 68.069 43.0634 67.8939 43.0634C68.2091 43.2042 68.6993 43.5211 69.5747 43.5211Z" fill="black"/>
<path d="M98.8124 30.8099C99.3026 30.8099 99.8629 31.2324 99.8629 31.831C99.8629 32.0422 99.8279 32.2887 99.7228 32.5352C96.9566 39.0845 90.899 43.4507 86.032 43.4507C81.1999 43.4507 79.3091 40.1056 79.3091 36.4437C79.3091 30.5986 83.896 23.2746 88.413 23.2746C91.2492 23.2746 95.2759 24.4366 95.2759 28.5915C95.2759 33.169 91.2842 35.3873 84.8414 36.162C84.9465 37.9225 85.7168 39.507 87.3625 39.507C91.2492 39.507 95.8011 35.3873 97.6219 31.5493C97.832 31.0211 98.3572 30.8099 98.8124 30.8099ZM90.3038 26.4437C88.0278 26.4437 85.8219 30.3521 85.0515 33.662C88.2729 32.993 91.7744 31.7253 91.7744 28.4155C91.7744 27.5352 91.1792 26.4437 90.3038 26.4437Z" fill="black"/>
<path d="M115.865 31.1972C116.355 31.1972 116.915 31.5845 116.915 32.2183C116.915 32.4648 116.88 32.6761 116.775 32.9225C114.009 39.4718 110.473 43.4859 107.636 43.4859C105.5 43.4859 102.944 41.6549 102.944 40.0352C102.944 37.1479 104.45 31.4084 105.816 26.9718C105.01 26.9718 103.224 26.7606 102.069 26.3732C101.579 28.4155 100.388 31.0915 99.3377 33.4859C99.0226 34.1549 98.5674 34.507 98.1122 34.507C97.552 34.507 97.0618 34.0845 97.0618 33.3451C97.0618 33.0986 97.1668 32.7465 97.2718 32.4296C98.2173 30.1408 99.2327 27.4648 99.5478 25.8451C98.3223 25 97.7971 24.1197 97.7971 22.5352C97.7971 20.493 98.6725 18.5211 100.318 18.5211C101.929 18.5211 102.909 19.4014 102.909 21.6549C102.909 22.0775 102.874 22.5352 102.769 23.0282C104.485 23.3451 106.866 23.1338 108.056 23.3451C109.212 23.5563 111.383 24.6831 111.383 26.4437C111.383 26.6901 111.383 26.9014 111.278 27.1479C110.227 30.2817 108.442 36.3028 108.442 38.5563C108.442 39.0493 108.687 39.1197 108.827 39.1197C110.683 39.1197 113.519 34.4366 114.639 31.9718C114.919 31.4437 115.41 31.1972 115.865 31.1972Z" fill="black"/>
</svg>
